<?xml version="1.0" encoding="utf-8"?>
<svg viewBox="0 0 562.03 508.038" xmlns="http://www.w3.org/2000/svg">
  <defs>
    <style>.cls-1{fill:#06176d;}.cls-2{fill:#f97e19;}</style>
  </defs>
  <g id="Layer_2" data-name="Layer 2">
    <g id="Layer_1-2" data-name="Layer 1">
      <path class="cls-1" d="M561.85,484.55l-53,22.72c-102.41-20.58-274.31-57.39-385.49-90.92a195.4,195.4,0,0,1-93.8-61.46C-26.19,287,7.74,196.83,46.06,159c83.87-83.9,302.69-72.81,368.6,19.85,17.93,25.21,21.33,57.92,10.09,86.74-32,82.09-152.14,100.23-209.29,57.94-13.58-10.06-23.28-24.71-26-41.39-7.78-47.61,45.58-79.68,105.12-62.62-74.45-10.63-85.54,97,5.42,96.32,1.67,0,3.39-.06,5.14-.15h.13c20.7-.41,39.61-6.82,42.17-7.73l.3-.1c4.14-1.69,54.57-23,59.53-66.4,2.76-24.24-10-43.42-14.81-50.4,0,0-56.07-76.64-202.6-46.87l-3.4.7-.34.07h0c-38.22,6.9-72.75,23.37-94.89,52.55C69.66,225.94,54.4,273.58,70.56,316.76c22.48,60,95,82.87,275.68,123.67C419.31,456.94,473.62,468.2,561.85,484.55Z"/>
      <path class="cls-2" d="M516.15,348.34c-83.87,83.9-302.69,72.81-368.6-19.85-17.93-25.21-21.33-57.92-10.09-86.74,32-82.09,152.14-100.23,209.29-57.94,13.58,10.06,23.28,24.71,26,41.39,7.78,47.61-45.58,79.68-105.12,62.62,74.45,10.63,85.54-97-5.42-96.32-1.67,0-3.39.06-5.14.15h-.13c-20.7.41-39.61,6.82-42.17,7.73l-.3.1c-4.14,1.69-54.57,23-59.53,66.4-2.77,24.24,10,43.42,14.81,50.4,0,0,56.07,76.64,202.6,46.87l3.4-.7.34-.07h0c38.22-6.9,72.75-23.37,94.89-52.55,21.57-28.43,36.83-76.07,20.67-119.25-22.48-60-95-82.87-275.68-123.67C142.8,50.38,88.45,39.11,0,22.72L53,0C155.37,20.56,327.53,57.42,438.84,91a195.4,195.4,0,0,1,93.8,61.46C588.4,220.31,554.47,310.51,516.15,348.34Z"/>
      <polygon class="cls-1" points="120.9 530.62 115.08 538.85 115.07 538.85 120.9 530.62"/>
    </g>
  </g>
</svg>